<svg width="48" height="48" viewBox="0 0 48 48" fill="none" xmlns="http://www.w3.org/2000/svg">
<g filter="url(#filter0_b_25_1087)">
<g opacity="0.5">
<path d="M17.5 15.4998L21.509 16.7048C21.504 19.9558 21.509 23.2078 21.504 26.4548C20.206 27.5868 18.097 29.7078 18.097 29.7078L27.107 24.9458L24.474 23.7688L22.697 19.9648L31.499 22.6188V26.8578L21.482 32.7418L17.5 29.9888V15.4998ZM17.5 13.9998C17.181 13.9998 16.867 14.1018 16.605 14.2958C16.224 14.5788 16 15.0258 16 15.4998V29.9888C16 30.4818 16.242 30.9428 16.647 31.2228L20.629 33.9758C20.885 34.1528 21.183 34.2418 21.482 34.2418C21.744 34.2418 22.006 34.1738 22.241 34.0348L32.259 28.1518C32.718 27.8828 33 27.3898 33 26.8578V22.6188C33 21.9568 32.566 21.3738 31.933 21.1828L23.131 18.5288C23.09 18.5168 23.049 18.5058 23.007 18.4968C23.007 17.8998 23.008 17.3028 23.009 16.7068C23.01 16.0438 22.576 15.4588 21.941 15.2678L17.932 14.0628C17.79 14.0208 17.645 13.9998 17.5 13.9998ZM23.006 25.4168C23.006 25.0008 23.007 24.5848 23.007 24.1688L23.116 24.4028C23.242 24.6728 23.445 24.8978 23.697 25.0508L23.006 25.4168Z" fill="white"/>
</g>
</g>
<defs>
<filter id="filter0_b_25_1087" x="-6.4" y="-6.4" width="60.8" height="60.8" filterUnits="userSpaceOnUse" color-interpolation-filters="sRGB">
<feFlood flood-opacity="0" result="BackgroundImageFix"/>
<feGaussianBlur in="BackgroundImageFix" stdDeviation="3.2"/>
<feComposite in2="SourceAlpha" operator="in" result="effect1_backgroundBlur_25_1087"/>
<feBlend mode="normal" in="SourceGraphic" in2="effect1_backgroundBlur_25_1087" result="shape"/>
</filter>
</defs>
</svg>
