<svg width="48" height="48" viewBox="0 0 48 48" fill="none" xmlns="http://www.w3.org/2000/svg">
<g filter="url(#filter0_b_46_268)">
<path d="M0 24C0 10.7452 10.7452 0 24 0C37.2548 0 48 10.7452 48 24C48 37.2548 37.2548 48 24 48C10.7452 48 0 37.2548 0 24Z" fill="white" fill-opacity="0.08"/>
<path d="M27.0331 35.9173C24.6296 35.5479 22.6697 34.4946 21.2549 32.54C20.434 31.4059 19.9877 30.1229 19.9732 28.7174C19.9529 26.7687 19.9597 24.8195 19.9726 22.8706C19.9749 22.5181 19.8697 22.3024 19.5673 22.0953C17.9324 20.9759 16.3127 19.8338 14.6995 18.6832C14.4119 18.4782 14.1274 18.3827 13.7775 18.3846C11.8119 18.3956 9.84622 18.3981 7.88063 18.3899C7.29922 18.3875 6.71133 18.3737 6.16897 18.1171C5.81583 17.95 5.50595 17.7389 5.49121 17.2921C5.66798 17.1088 5.87892 17.1685 6.06854 17.1684C13.4147 17.1643 20.7608 17.1627 28.1069 17.1669C28.447 17.1671 28.7543 17.102 29.0714 16.9736C30.651 16.3344 32.2645 16.03 33.9334 16.6225C34.6873 16.8902 35.3843 17.2537 35.9345 17.9502C35.0129 18.4644 34.1399 18.9408 33.2774 19.4358C32.3677 19.9578 31.4566 20.4789 30.5671 21.034C29.3858 21.7713 28.8116 22.8545 28.8141 24.2522C28.8208 27.917 28.819 31.5817 28.8198 35.2464C28.8199 35.935 28.8183 35.9371 28.1286 35.9361C27.7789 35.9356 27.4292 35.9259 27.0331 35.9173ZM25.5537 26.1945C26.0014 26.4505 26.3593 26.8579 26.9274 27.072C26.9274 26.5368 26.897 26.0861 26.9336 25.6409C27.0159 24.6386 26.6682 23.8432 25.8524 23.2626C24.8481 22.5478 23.8248 21.8594 22.8296 21.1323C22.4416 20.8488 22.2462 20.9687 22.0663 21.3428C21.587 22.3393 21.8594 23.531 22.7698 24.2085C23.6649 24.8746 24.585 25.5072 25.5537 26.1945ZM29.8827 19.4381C29.6216 19.5826 29.3614 19.7287 29.0992 19.8712C28.8188 20.0237 28.744 20.2307 28.9232 20.5665C29.9937 19.9748 31.041 19.3959 32.2124 18.7485C31.7587 18.6088 31.4665 18.5688 31.1679 18.7352C30.7627 18.961 30.3551 19.1826 29.8827 19.4381ZM33.9037 18.4503C34.0204 18.2645 34.0032 18.0983 33.8117 17.9798C33.6702 17.8924 33.5215 17.9012 33.4045 18.0319C33.3031 18.1452 33.3095 18.2809 33.3802 18.4041C33.4969 18.6076 33.6663 18.6017 33.9037 18.4503Z" fill="white"/>
<path d="M35.0667 19.0615C35.9432 18.3536 36.8765 18.3799 37.862 18.6651C38.618 18.8838 39.3886 19.0521 40.2757 19.2736C39.9506 19.4914 39.7201 19.4503 39.505 19.4504C38.3411 19.4513 37.1771 19.4535 36.0134 19.435C35.6608 19.4294 35.384 19.5331 35.1002 19.7446C33.3535 21.0464 31.5932 22.3298 29.8361 23.6176C29.745 23.6844 29.6551 23.7673 29.4983 23.7413C29.3672 23.5588 29.477 23.3726 29.5334 23.1943C29.8382 22.2309 30.5194 21.5962 31.3728 21.1182C32.5916 20.4356 33.8128 19.757 35.0667 19.0615Z" fill="white"/>
</g>
<defs>
<filter id="filter0_b_46_268" x="-6.4" y="-6.4" width="60.8" height="60.8" filterUnits="userSpaceOnUse" color-interpolation-filters="sRGB">
<feFlood flood-opacity="0" result="BackgroundImageFix"/>
<feGaussianBlur in="BackgroundImageFix" stdDeviation="3.2"/>
<feComposite in2="SourceAlpha" operator="in" result="effect1_backgroundBlur_46_268"/>
<feBlend mode="normal" in="SourceGraphic" in2="effect1_backgroundBlur_46_268" result="shape"/>
</filter>
</defs>
</svg>
