<svg width="48" height="48" viewBox="0 0 48 48" fill="none" xmlns="http://www.w3.org/2000/svg">
<g filter="url(#filter0_b_25_1085)">
<g opacity="0.5">
<path d="M27.0331 34.9173C24.6296 34.5479 22.6697 33.4946 21.2549 31.54C20.434 30.4059 19.9877 29.1229 19.9732 27.7174C19.9529 25.7687 19.9597 23.8195 19.9726 21.8706C19.9749 21.5181 19.8697 21.3024 19.5673 21.0953C17.9324 19.9759 16.3127 18.8338 14.6995 17.6832C14.4119 17.4782 14.1274 17.3827 13.7775 17.3846C11.8119 17.3956 9.84622 17.3981 7.88063 17.3899C7.29922 17.3875 6.71133 17.3737 6.16897 17.1171C5.81583 16.95 5.50595 16.7389 5.49121 16.2921C5.66798 16.1088 5.87892 16.1685 6.06854 16.1684C13.4147 16.1643 20.7608 16.1627 28.1069 16.1669C28.447 16.1671 28.7543 16.102 29.0714 15.9736C30.651 15.3344 32.2645 15.03 33.9334 15.6225C34.6873 15.8902 35.3843 16.2537 35.9345 16.9502C35.0129 17.4644 34.1399 17.9408 33.2774 18.4358C32.3677 18.9578 31.4566 19.4789 30.5671 20.034C29.3858 20.7713 28.8116 21.8545 28.8141 23.2522C28.8208 26.917 28.819 30.5817 28.8198 34.2464C28.8199 34.935 28.8183 34.9371 28.1286 34.9361C27.7789 34.9356 27.4292 34.9259 27.0331 34.9173ZM25.5537 25.1945C26.0014 25.4505 26.3593 25.8579 26.9274 26.072C26.9274 25.5368 26.897 25.0861 26.9336 24.6409C27.0159 23.6386 26.6682 22.8432 25.8524 22.2626C24.8481 21.5478 23.8248 20.8594 22.8296 20.1323C22.4416 19.8488 22.2462 19.9687 22.0663 20.3428C21.587 21.3393 21.8594 22.531 22.7698 23.2085C23.6649 23.8746 24.585 24.5072 25.5537 25.1945ZM29.8827 18.4381C29.6216 18.5826 29.3614 18.7287 29.0992 18.8712C28.8188 19.0237 28.744 19.2307 28.9232 19.5665C29.9937 18.9748 31.041 18.3959 32.2124 17.7485C31.7587 17.6088 31.4665 17.5688 31.1679 17.7352C30.7627 17.961 30.3551 18.1826 29.8827 18.4381ZM33.9037 17.4503C34.0204 17.2645 34.0032 17.0983 33.8117 16.9798C33.6702 16.8924 33.5215 16.9012 33.4045 17.0319C33.3031 17.1452 33.3095 17.2809 33.3802 17.4041C33.4969 17.6076 33.6663 17.6017 33.9037 17.4503Z" fill="white"/>
<path d="M35.0667 18.0615C35.9432 17.3536 36.8765 17.3799 37.862 17.6651C38.618 17.8838 39.3886 18.0521 40.2757 18.2736C39.9506 18.4914 39.7201 18.4503 39.505 18.4504C38.3411 18.4513 37.1771 18.4535 36.0134 18.435C35.6608 18.4294 35.384 18.5331 35.1002 18.7446C33.3535 20.0464 31.5932 21.3298 29.8361 22.6176C29.745 22.6844 29.6551 22.7673 29.4983 22.7413C29.3672 22.5588 29.477 22.3726 29.5334 22.1943C29.8382 21.2309 30.5194 20.5962 31.3728 20.1182C32.5916 19.4356 33.8128 18.757 35.0667 18.0615Z" fill="white"/>
</g>
</g>
<defs>
<filter id="filter0_b_25_1085" x="-6.4" y="-6.4" width="60.8" height="60.8" filterUnits="userSpaceOnUse" color-interpolation-filters="sRGB">
<feFlood flood-opacity="0" result="BackgroundImageFix"/>
<feGaussianBlur in="BackgroundImageFix" stdDeviation="3.2"/>
<feComposite in2="SourceAlpha" operator="in" result="effect1_backgroundBlur_25_1085"/>
<feBlend mode="normal" in="SourceGraphic" in2="effect1_backgroundBlur_25_1085" result="shape"/>
</filter>
</defs>
</svg>
