<svg width="24" height="24" viewBox="0 0 24 24" fill="none" xmlns="http://www.w3.org/2000/svg">
<g clip-path="url(#clip0_25_1505)">
<path d="M11.625 9.375C12.2808 9.375 12.8125 8.84334 12.8125 8.1875C12.8125 7.53166 12.2808 7 11.625 7C10.9692 7 10.4375 7.53166 10.4375 8.1875C10.4375 8.84334 10.9692 9.375 11.625 9.375Z" fill="white"/>
<path d="M12 21C16.9706 21 21 16.9706 21 12C21 7.02944 16.9706 3 12 3C7.02944 3 3 7.02944 3 12C3 16.9706 7.02944 21 12 21Z" stroke="white" stroke-width="2" stroke-linecap="round" stroke-linejoin="round"/>
<path d="M11.25 11.625C11.4489 11.625 11.6397 11.704 11.7803 11.8447C11.921 11.9853 12 12.1761 12 12.375V15.75C12 15.9489 12.079 16.1397 12.2197 16.2803C12.3603 16.421 12.5511 16.5 12.75 16.5" stroke="white" stroke-width="2" stroke-linecap="round" stroke-linejoin="round"/>
</g>
<defs>
<clipPath id="clip0_25_1505">
<rect width="24" height="24" fill="white"/>
</clipPath>
</defs>
</svg>
