<svg width="17" height="20" viewBox="0 0 17 20" fill="none" xmlns="http://www.w3.org/2000/svg">
<path opacity="0.8" d="M0.600586 1.18505V18.809C0.603198 18.9497 0.642845 19.0871 0.715529 19.2076C0.788213 19.328 0.891363 19.4271 1.01458 19.495C1.1378 19.5628 1.27673 19.597 1.41736 19.594C1.55799 19.591 1.69535 19.551 1.81559 19.478L16.2236 10.666C16.3387 10.5964 16.4338 10.4982 16.4999 10.381C16.566 10.2638 16.6007 10.1316 16.6007 9.99705C16.6007 9.86252 16.566 9.73026 16.4999 9.61307C16.4338 9.49588 16.3387 9.3977 16.2236 9.32804L1.81559 0.516045C1.69535 0.443053 1.55799 0.403054 1.41736 0.400081C1.27673 0.397108 1.1378 0.431267 1.01458 0.499113C0.891363 0.566958 0.788213 0.666092 0.715529 0.786519C0.642845 0.906946 0.603198 1.04441 0.600586 1.18505Z" fill="white"/>
</svg>
