<svg width="24" height="24" viewBox="0 0 24 24" fill="none" xmlns="http://www.w3.org/2000/svg">
<g opacity="0.8" clip-path="url(#clip0_25_249)">
<path d="M7.5 15.75H3C2.80109 15.75 2.61032 15.671 2.46967 15.5303C2.32902 15.3897 2.25 15.1989 2.25 15V9C2.25 8.80109 2.32902 8.61032 2.46967 8.46967C2.61032 8.32902 2.80109 8.25 3 8.25H7.5L14.25 3V21L7.5 15.75Z" stroke="white" stroke-width="1.6" stroke-linecap="round" stroke-linejoin="round"/>
<path d="M7.5 8.25V15.75" stroke="white" stroke-width="1.6" stroke-linecap="round" stroke-linejoin="round"/>
<path d="M18 10.0173C18.4825 10.5652 18.7487 11.2701 18.7487 12.0001C18.7487 12.7302 18.4825 13.4351 18 13.983" stroke="white" stroke-width="1.6" stroke-linecap="round" stroke-linejoin="round"/>
<path d="M20.7803 7.5C21.8872 8.73755 22.4991 10.3397 22.4991 12C22.4991 13.6603 21.8872 15.2624 20.7803 16.5" stroke="white" stroke-width="1.6" stroke-linecap="round" stroke-linejoin="round"/>
</g>
<defs>
<clipPath id="clip0_25_249">
<rect width="24" height="24" fill="white"/>
</clipPath>
</defs>
</svg>
